# xmcd CD database file
#
# Track frame offsets:
#	183
#	19978
#	34135
#	53718
#	70155
#	102118
#	118225
#	135433
#	151070
#	164595
#	180270
#
# Disc length: 2699 seconds
#
# Revision: 7
# Processed by: cddbd v1.5.2PL0 Copyright (c) Steve Scherf et al.
# Submitted via: CDex 1.51
#
DISCID=890a890b
DTITLE=Eric Clapton - Time Pieces
DYEAR=1982
DGENRE=R&B
TTITLE0=I Shot The Sheriff
TTITLE1=After Midnight
TTITLE2=Knockin' On Heaven's Door
TTITLE3=Wonderful Tonight
TTITLE4=Layla
TTITLE5=Cocaine
TTITLE6=Lay Down Sally
TTITLE7=Willie And The Hand Jive
TTITLE8=Promises
TTITLE9=Swing Low Sweet Chariot
TTITLE10=Let It Grow
EXTD=YEAR: 1982
EXTT0=
EXTT1=
EXTT2=
EXTT3=
EXTT4=
EXTT5=
EXTT6=
EXTT7=
EXTT8=
EXTT9=
EXTT10=
PLAYORDER=
